<?xml version="1.0" standalone="no"?>
<!DOCTYPE svg PUBLIC "-//W3C//DTD SVG 1.1//EN" "http://www.w3.org/Graphics/SVG/1.1/DTD/svg11.dtd" >
<!--
2013-9-30: Created.
-->
<svg>
<metadata>
Created by iconfont
</metadata>
<defs>

<font id="iconfont" horiz-adv-x="1024" >
  <font-face
    font-family="iconfont"
    font-weight="500"
    font-stretch="normal"
    units-per-em="1024"
    ascent="896"
    descent="-128"
  />
    <missing-glyph />
    
    <glyph glyph-name="back" unicode="&#58929;" d="M699.84-52.608c-16.384 0-32.768 6.272-45.248 18.752l-375.68 375.552C266.816 353.728 260.096 370.112 260.16 387.2c0.064 17.088 6.912 33.344 19.136 45.376l375.68 369.664c25.152 24.832 65.6 24.512 90.496-0.768 24.832-25.216 24.448-65.664-0.768-90.496L415.04 386.56l330.048-329.92c25.024-25.024 25.024-65.472 0-90.496C732.608-46.4 716.224-52.608 699.84-52.608z"  horiz-adv-x="1024" />

    
    <glyph glyph-name="yao" unicode="&#59043;" d="M723.707 796.868c-53.806 0-104.475-20.946-142.581-59.065l-129.278-129.244c-7.822-7.839-7.822-20.574 0-28.404 4.086-4.059 9.131-5.89 14.379-5.89 5.028 0 10.267 1.832 14.299 5.89l129.047 129.24c30.454 30.459 71.021 47.178 114.146 47.178 43.179 0 83.525-16.719 114.183-47.178 7.822-7.875 20.522-7.875 28.417 0 7.869 7.85 7.869 20.567 0 28.407-38.125 38.12-88.746 59.065-142.611 59.065v0zM155.767 356.516c-94.303-94.355-100.849-241.287-6.547-335.642 45.752-45.727 106.471-70.909 171.147-70.909 64.659 0 117.491 33.15 163.179 78.878l187.425 187.371-327.783 327.672-187.422-187.37zM310.319-128c-82.964 0-160.947 32.269-219.584 90.858-120.962 121-120.966 317.927-0.017 438.982l403.356 403.265c58.629 58.611 136.594 90.894 219.542 90.894 82.689 0 160.621-32.269 219.452-90.857 58.664-58.809 90.942-136.75 90.942-219.536 0-82.983-32.288-160.938-90.916-219.504l-403.246-403.237c-58.835-58.611-136.786-90.866-219.529-90.866v0zM713.616 839.715c-67.909 0-131.746-26.424-179.743-74.414l-403.342-403.252c-99.016-99.107-99.019-260.333 0.005-359.393 48-47.957 111.85-74.373 179.784-74.373 67.75 0 131.586 26.429 179.76 74.415l403.224 403.209c47.992 47.948 74.415 111.763 74.415 179.7 0 67.777-26.431 131.605-74.441 179.723-48.138 47.948-111.963 74.386-179.661 74.386v0z"  horiz-adv-x="1025" />

    
    <glyph glyph-name="all" unicode="&#58948;" d="M0 273.092267C0 310.775467 30.609067 341.333333 68.241067 341.333333h332.8512C438.775467 341.333333 469.333333 310.724267 469.333333 273.092267v-332.8512c0-37.6832-30.609067-68.241067-68.241066-68.241067H68.241067C30.557867-128 0-97.390933 0-59.758933V273.092267z m554.666667 554.666666C554.666667 865.442133 585.275733 896 622.907733 896h332.8512C993.442133 896 1024 865.390933 1024 827.758933v-332.8512c0-37.6832-30.609067-68.241067-68.241067-68.241066H622.907733C585.224533 426.666667 554.666667 457.275733 554.666667 494.907733V827.758933z m-554.666667 0C0 865.442133 30.609067 896 68.241067 896h332.8512C438.775467 896 469.333333 865.390933 469.333333 827.758933v-332.8512C469.333333 457.224533 438.724267 426.666667 401.092267 426.666667H68.241067C30.557867 426.666667 0 457.275733 0 494.907733V827.758933z m554.666667-554.666666C554.666667 310.775467 585.275733 341.333333 622.907733 341.333333h332.8512c37.6832 0 68.241067-30.609067 68.241067-68.241066v-332.8512c0-37.6832-30.609067-68.241067-68.241067-68.241067H622.907733c-37.6832 0-68.241067 30.609067-68.241066 68.241067V273.092267zM85.333333-42.666667h298.666667V256H85.333333v-298.666667z m554.666667 554.666667h298.666667V810.666667H640v-298.666667z m0-554.666667h298.666667V256H640v-298.666667zM85.333333 512h298.666667V810.666667H85.333333v-298.666667z"  horiz-adv-x="1024" />

    
    <glyph glyph-name="jishiben" unicode="&#59139;" d="M745.580759 29.558839c0-17.201264-14.006256-31.211533-31.209527-31.211533H129.989856c-17.203271 0-31.209527 14.008263-31.209527 31.211533V738.405036c0 17.203271 14.006256 31.209527 31.209527 31.209527h584.405459c17.201264 0 31.211533-14.006256 31.211534-31.209527h37.45103c0 37.876496-30.812158 68.662564-68.662564 68.662564H129.989856c-37.876496 0-68.660557-30.786068-68.660557-68.662564V29.534756c0-37.876496 30.810151-68.662564 68.660557-68.662564h584.405459c37.850406 0 68.662564 30.786068 68.662564 68.662564v154.076843h-37.45103v-154.05276h-0.02609zM947.773375 662.826645a18.559945 18.559945 0 0 1-3.871338 4.043933c-1.069685 0.848925-26.88864 20.649143-55.501219 34.581142-8.541428 4.144278-17.181195 6.243511-25.642345 6.243511-24.968023 0-38.651165-17.702992-40.425278-20.149421l-33.254573-48.039511c-0.076263-0.126436-0.100346-0.274947-0.176608-0.375293-0.074256-0.100346-0.198685-0.150519-0.246851-0.274947L560.244216 277.567306c-1.073699-1.719926-1.599511-3.570301-2.073142-5.442752-0.102353-0.375293-0.425466-0.648233-0.497715-1.047609l-26.142068-136.624715a18.76465 18.76465 0 0 1 7.911257-19.049632 18.740567 18.740567 0 0 1 20.600977-0.226781l115.526023 74.404346c1.200135 0.774669 1.874458 2.02297 2.847812 3.022413 0.848925 0.848925 1.920617 1.322557 2.62103 2.372173L921.233939 556.562532c8.065789 11.810692 26.716045 39.251233 33.581699 50.51203 14.505978 23.87024-4.796526 52.557076-7.042263 55.752083z m-94.957157 2.996323c0.048166 0.076263 8.412985 7.142609 19.200151 1.948714 20.29994-9.888067 39.724865-23.695639 46.490173-28.662752 2.496602-4.393136 4.770436-10.536301 4.31888-12.458925-4.892857-8.015616-16.90424-25.891203-25.816947-39.026458l-66.515166 45.992458 22.322909 32.206963z m23.374533-109.336699L660.415337 231.675193l-58.975188 41.047422 208.408031 329.65376 66.342571-45.890106zM576.522299 170.378005l12.507091 65.343128 42.747278-29.738458-55.254369-35.60467zM654.348435 616.484983c0 10.337616-8.390909 18.726519-18.726519 18.726519H166.644141c-10.335609 0-18.726519-8.388902-18.726519-18.726519 0-10.335609 8.388902-18.726519 18.726519-18.726518h468.999851a18.696415 18.696415 0 0 1 18.704443 18.726518zM520.744126 430.520277c0 10.337616-8.388902 18.726519-18.726518 18.726519H166.644141c-10.335609 0-18.726519-8.388902-18.726519-18.726519 0-10.335609 8.388902-18.726519 18.726519-18.726519h335.37146c10.339623 0.002007 18.728526 8.390909 18.728525 18.726519zM166.646148 262.136141c-10.335609 0-18.726519-8.388902-18.726519-18.724512s8.388902-18.726519 18.726519-18.726519H368.389216c10.337616 0 18.726519 8.390909 18.726519 18.726519s-8.388902 18.724512-18.726519 18.724512H166.646148z"  horiz-adv-x="1024" />

    
    <glyph glyph-name="wuliu" unicode="&#59062;" d="M219.306667 212.48a91.613867 91.613867 0 0 1-91.511467-91.733333A91.5968 91.5968 0 0 1 219.306667 29.013333a91.5968 91.5968 0 0 1 91.528533 91.733334A91.613867 91.613867 0 0 1 219.306667 212.48zM969.1648 744.977067H548.488533a54.954667 54.954667 0 0 1-54.8352-55.04v-495.803734a54.954667 54.954667 0 0 1 54.8352-55.04h56.1152c9.0624 72.4992 70.382933 128.426667 145.0496 128.426667 74.7008 0 135.9872-56.132267 145.0496-128.426667h74.461867A54.954667 54.954667 0 0 1 1024 194.133333V689.937067a54.818133 54.818133 0 0 1-54.8352 55.04zM754.397867 212.48c-53.077333 0-96.0512-43.1616-96.0512-96.477867 0-53.333333 42.973867-96.494933 96.0512-96.494933 53.0944 0 96.0512 43.1616 96.0512 96.494933-0.2048 53.316267-43.1616 96.477867-96.0512 96.477867zM402.141867 634.897067H182.8352C124.996267 634.897067 0 451.208533 0 377.821867V175.786667c0-20.292267 16.401067-36.676267 36.488533-36.676267h37.768534c9.0624 72.4992 70.365867 128.426667 145.0496 128.426667s135.9872-56.132267 145.0496-128.426667h37.768533c20.2752 0 36.488533 16.384 36.488533 36.676267V597.998933a36.522667 36.522667 0 0 1-36.471466 36.898134z m-72.96-275.438934H91.306667v18.346667c0 55.9104 81.390933 164.0448 110.9504 165.341867 69.290667 2.577067 126.9248 0 126.9248 0v-183.688534z"  horiz-adv-x="1024" />

    
    <glyph glyph-name="mima" unicode="&#58975;" d="M768.192 448H768v144c0 132.544-114.624 240-256 240s-256-107.456-256-240v-144h-0.192c-70.592 0-127.808-56-127.808-125.056v-261.888c0-69.056 57.216-125.056 127.808-125.056h512.448c70.592 0 127.808 56 127.808 125.056v261.888C896 392 838.784 448 768.192 448z m-224.448-245.76v-42.688a31.68 31.68 0 0 0-63.488 0v42.688a62.72 62.72 0 0 0-32.256 54.08 63.872 63.872 0 0 0 64 63.68c35.328 0 64-28.48 64-63.68a62.72 62.72 0 0 0-32.256-54.08zM704 448h-384v128a192 192 0 1 0 384 0v-128z"  horiz-adv-x="1024" />

    
    <glyph glyph-name="youhuiquan" unicode="&#58927;" d="M130.996 678.657v-529.895c0-96.639 47.813-125.397 47.813-125.397 26.406-26.276 69.217-26.276 95.623 0 26.406 26.274 69.219 26.274 95.625 0 26.406-26.276 69.219-26.276 95.625 0 26.406 26.274 69.222 26.274 95.629 0 26.403-26.276 69.219-26.276 95.625 0 26.406 26.274 69.219 26.274 95.623 0 26.406-26.276 69.219-26.276 95.625 0 0 0 47.813 32.676 47.813 125.397 0 92.72-0.196 529.942-0.196 529.942-0.024 49.393-40.274 89.418-89.912 89.418h-584.98c-49.658 0-89.913-40.053-89.913-89.465zM895.833 602.991l-0.033 75.713c-0.024 49.393-40.274 89.418-89.912 89.418h-43.341c56.632-43.353 102.596-99.937 133.286-165.131zM219.147 768.1c-48.844-0.934-88.151-40.617-88.151-89.443v-0.182a449.977 449.977 0 0 0 88.151 89.625zM895.981 222.693c-35.787-76.176-92.426-140.61-162.563-185.955a67.47 67.47 0 0 0 19.141-13.373c26.406-26.276 69.219-26.276 95.625 0 0 0 47.813 32.676 47.813 125.397-0.001 15.864-0.007 41.814-0.016 73.931zM131.011 146.877c0.62-95.118 47.798-123.512 47.798-123.512 25.908-25.78 67.594-26.248 94.098-1.443-55.738 31.156-104.118 73.896-141.896 124.955zM278.789 768.122h-57.881c-0.589 0-1.175-0.011-1.761-0.022a449.95 449.95 0 0 1-88.151-89.625v-63.274c34.012 63.739 85.378 116.816 147.793 152.921zM895.981 222.693c-0.032 106.518-0.105 280.883-0.148 380.298-30.69 65.194-76.654 121.778-133.286 165.131H664.84c115.393-66.751 193.032-191.51 193.032-334.407 0-213.214-172.844-386.058-386.058-386.058-147.609 0-275.863 82.845-340.819 204.572v-103.467c0-0.635 0.01-1.256 0.015-1.885 37.778-51.059 86.158-93.799 141.896-124.955 0.51 0.478 1.026 0.946 1.525 1.443 26.406 26.274 69.219 26.274 95.625 0 26.406-26.276 69.219-26.276 95.625 0 26.406 26.274 69.222 26.274 95.628 0 26.403-26.276 69.219-26.276 95.625 0 20.685 20.582 51.435 25.036 76.482 13.373 70.139 45.345 126.778 109.779 162.565 185.955zM471.815 47.657c213.214 0 386.058 172.844 386.058 386.058 0 142.896-77.639 267.656-193.032 334.407H538.204c137.906-37.51 239.322-163.59 239.322-313.377 0-179.359-145.399-324.758-324.758-324.758-164.412 0-300.266 122.182-321.771 280.696V252.23c64.954-121.727 193.209-204.573 340.818-204.573zM367.331 768.122h-88.542c-62.415-36.105-113.781-89.182-147.793-152.921v-116.394c17.637 130.003 112.191 235.548 236.335 269.315zM452.767 129.986c179.359 0 324.758 145.399 324.758 324.758 0 149.787-101.416 275.867-239.322 313.377H367.331C243.187 734.355 148.633 628.81 130.996 498.807v-88.125c21.505-158.514 157.36-280.696 321.771-280.696zM433.72 739.233c145.504 0 263.459-117.955 263.459-263.459S579.225 212.315 433.72 212.315 170.261 330.27 170.261 475.774 288.216 739.233 433.72 739.233zM433.72 212.315c145.504 0 263.459 117.955 263.459 263.459S579.225 739.233 433.72 739.233 170.261 621.278 170.261 475.774 288.216 212.315 433.72 212.315z m-19.047 486.647c111.65 0 202.159-90.51 202.159-202.159s-90.51-202.159-202.159-202.159-202.159 90.51-202.159 202.159 90.51 202.159 202.159 202.159zM414.673 294.644c111.65 0 202.159 90.51 202.159 202.159s-90.51 202.159-202.159 202.159-202.159-90.51-202.159-202.159 90.51-202.159 202.159-202.159z m-19.047 364.048c77.795 0 140.86-63.065 140.86-140.86s-63.065-140.86-140.86-140.86-140.86 63.065-140.86 140.86 63.065 140.86 140.86 140.86zM395.626 517.832m-140.86 0a140.86 140.86 0 1 1 281.72 0 140.86 140.86 0 1 1-281.72 0ZM805.888 750.122c39.633 0 71.892-32.042 71.912-71.426 0.002-4.372 0.196-438.278 0.196-529.933 0-42.494-10.973-70.356-20.179-86.246-9.36-16.157-18.849-23.571-19.875-24.345l-1.125-0.724-1.329-1.322c-9.375-9.329-21.847-14.467-35.116-14.467s-25.741 5.138-35.116 14.467c-16.167 16.087-37.655 24.946-60.507 24.946-22.852 0-44.341-8.859-60.509-24.946-9.375-9.329-21.847-14.467-35.117-14.467-13.27 0-25.741 5.137-35.115 14.467-16.167 16.087-37.657 24.946-60.51 24.946s-44.343-8.859-60.511-24.946c-9.375-9.329-21.846-14.467-35.116-14.467s-25.741 5.138-35.117 14.467c-16.167 16.087-37.656 24.946-60.508 24.946-22.852 0-44.341-8.859-60.509-24.946-9.375-9.329-21.846-14.467-35.115-14.467s-25.74 5.138-35.115 14.467l-1.257 1.458-2.039 1.139c-1.143 0.786-10.28 7.37-19.32 22.761-9.075 15.45-19.893 43.134-19.893 87.28V678.657c0 39.406 32.26 71.465 71.912 71.465h584.978m0 18h-584.98c-49.657 0-89.912-40.053-89.912-89.465v-529.895c0-96.639 47.813-125.397 47.813-125.397 13.203-13.138 30.507-19.707 47.812-19.707s34.608 6.569 47.812 19.707c13.203 13.137 30.508 19.706 47.813 19.706s34.609-6.568 47.812-19.706c13.203-13.138 30.508-19.707 47.813-19.707s34.609 6.569 47.812 19.707c13.203 13.137 30.509 19.706 47.814 19.706s34.611-6.568 47.814-19.706c13.201-13.138 30.506-19.707 47.811-19.707s34.611 6.569 47.814 19.707c13.203 13.137 30.508 19.706 47.812 19.706s34.609-6.568 47.811-19.706c13.203-13.138 30.508-19.707 47.812-19.707s34.609 6.569 47.813 19.707c0 0 47.812 32.676 47.812 125.397 0 92.72-0.196 529.942-0.196 529.942-0.025 49.393-40.274 89.418-89.912 89.418zM756.904 651.061H270.087c-19.205 0-34.771-15.568-34.771-34.773v-69.545c0-19.203 15.566-34.774 34.771-34.774h486.816c19.207 0 34.773 15.571 34.773 34.774v69.545c0 19.206-15.566 34.773-34.772 34.773z m-278.181-191.25H270.087c-19.205 0-34.771-15.568-34.771-34.774 0-19.203 15.566-34.771 34.771-34.771h208.636c19.201 0 34.773 15.568 34.773 34.771 0 19.207-15.571 34.774-34.773 34.774z m0-121.706H270.087c-19.205 0-34.771-15.568-34.771-34.771 0-19.203 15.566-34.773 34.771-34.773h208.636c19.201 0 34.773 15.57 34.773 34.773 0 19.203-15.571 34.771-34.773 34.771zM193.569 616.345c-9.941 0-18 8.059-18 18v9.908c0 45.915 37.354 83.27 83.269 83.27h16.196c9.941 0 18-8.059 18-18s-8.059-18-18-18h-16.196c-26.064 0-47.269-21.205-47.269-47.27v-9.908c0-9.941-8.06-18-18-18zM193.569 546.739c-9.941 0-18 8.059-18 18v10.546c0 9.941 8.059 18 18 18s18-8.059 18-18v-10.546c0-9.941-8.06-18-18-18z"  horiz-adv-x="1024" />

    
    <glyph glyph-name="shoucang" unicode="&#58970;" d="M427.6 745.8c-58.3-95-141.5-155.6-249.7-181.8s-126.2-81.7-54-166.6 104-182.9 95.4-294.1 38.5-145.5 141.4-102.9 205.8 42.6 308.7 0 150-8.3 141.4 102.9 23.2 209.2 95.4 294.1 54.2 140.4-54 166.6-191.5 86.8-249.8 181.8c-58.2 95.1-116.5 95.1-174.8 0zM866.6 560.3c23.8-49.3 38-104.2 40.2-162.1 68.2 80.6 54.8 134.6-40.2 162.1zM92.6 442.6c5.2 35.2 14.8 69 28.4 100.7-41.7-23.1-51.1-56.7-28.4-100.7zM355.7-1.5c-51.5 19-98.1 48.1-137.4 84.8-1.4-93.4 44.4-121.7 137.4-84.8zM573.7 785c-37.4 40.9-74.7 42.8-112.1 5.5 11.9 1 23.9 1.6 36 1.6 26-0.1 51.5-2.5 76.1-7.1zM657 5.4c4.1-1.6 8.3-3.2 12.4-4.9 102.9-42.6 150-8.3 141.4 102.9-0.4 4.9-0.7 9.7-0.9 14.5-41.2-48.5-93.5-87.4-152.9-112.5zM613.1 729.3c-3.6 5.4-7.2 10.9-10.6 16.5-9.6 15.6-19.1 28.6-28.7 39.1-24.7 4.6-50.1 7.1-76.1 7.1-12.1 0-24.1-0.5-36-1.6-10.1-10-20.1-22.9-30.2-38.6 15.9 2.2 32.2 3.3 48.8 3.3 46.9 0.1 91.7-9.1 132.8-25.8zM164.4 560.5c-17.1-4.9-31.6-10.6-43.5-17.2-13.5-31.7-23.2-65.5-28.4-100.7 7.2-14 17.6-29 31.3-45.1 1-1.2 2.1-2.4 3.1-3.7-0.1 2.7-0.1 5.3-0.1 8 0.1 57.1 13.6 111 37.6 158.7zM906.2 397.5c0.2 0.2 0.3 0.4 0.5 0.6-2.2 57.9-16.4 112.8-40.2 162.1-4.6 1.3-9.4 2.6-14.4 3.8-25.3 6.1-49.1 14.1-71.7 24 33.6-54.1 53-117.8 53-186.2 0-195.1-158.2-353.3-353.3-353.3-103 0-195.7 44.1-260.2 114.3 1.1-19.4 0.9-39.2-0.7-59.5-0.5-7-0.9-13.7-1-20.1 39.4-36.7 86-65.8 137.4-84.8 1.6 0.7 3.3 1.3 5 2 98.8 40.9 197.5 42.5 296.3 4.9 59.5 25.2 111.8 64 152.9 112.5-4.7 105.3 27.3 198.5 96.4 279.7zM480.2 48.6c195.1 0 353.3 158.2 353.3 353.3 0 68.3-19.4 132.1-53 186.2-68.3 29.9-124.1 77-167.4 141.3-41 16.7-85.9 25.9-132.9 25.9-16.5 0-32.8-1.1-48.8-3.3-1.3-2-2.5-3.9-3.8-6-7.1-11.5-14.5-22.6-22.3-33.1 18.6 3.6 37.8 5.6 57.5 5.6 164.1 0 297.2-133.1 297.2-297.2S626.9 123.9 462.7 123.9 165.5 257 165.5 421.1c0 55.1 15 106.7 41.1 150.9-9.4-2.9-19-5.6-28.8-8-4.7-1.1-9.2-2.3-13.5-3.6-24-47.7-37.5-101.6-37.5-158.7 0-2.7 0-5.3 0.1-8 57.1-68.5 88.1-145.5 93-230.9 64.6-70.2 157.3-114.2 260.3-114.2zM462.7 123.9C626.9 123.9 760 257 760 421.1S626.9 718.3 462.7 718.3c-19.7 0-38.9-1.9-57.5-5.6-11.8-15.9-24.4-30.6-37.9-44.2 24.4 8.3 50.6 12.9 77.9 12.9 133.2 0 241.1-107.9 241.1-241.1s-107.8-241.1-241-241.1-241.1 108-241.1 241.2c0 57.3 20 109.9 53.4 151.3-16.2-7.5-33.2-14.1-50.9-19.6-26.1-44.2-41.1-95.8-41.1-150.9-0.1-164.2 133-297.3 297.1-297.3zM445.3 199.2c133.2 0 241.1 107.9 241.1 241.1S578.5 681.5 445.3 681.5c-27.3 0-53.5-4.5-77.9-12.9-31.9-32.1-68.5-57.8-109.8-76.9-33.4-41.4-53.4-94-53.4-151.3 0-133.2 108-241.2 241.1-241.2z m-17.4 445.4c102.2 0 185-82.8 185-185s-82.8-185-185-185-185 82.8-185 185 82.8 185 185 185zM427.9 274.6c102.2 0 185 82.8 185 185s-82.8 185-185 185-185-82.8-185-185 82.8-185 185-185z m-17.4 333.2c71.2 0 128.9-57.7 128.9-128.9S481.7 350 410.5 350s-128.9 57.7-128.9 128.9 57.7 128.9 128.9 128.9zM410.5 478.8m-128.9 0a128.9 128.9 0 1 1 257.8 0 128.9 128.9 0 1 1-257.8 0ZM515 799.1c10.4 0 21-4.5 32.3-13.8 12.9-10.5 26.3-27 39.7-48.9 60.6-98.8 148.3-162.7 260.8-189.9 24.9-6 44.7-13.7 58.7-22.7 12.3-8 19.9-16.7 23.1-26.6 3.2-9.9 2.2-21.4-3.1-35.1-6-15.6-17.5-33.4-34.2-53-75.1-88.2-108.6-191.6-99.6-307.2 3.3-42.8-2.3-73.4-16.2-88.4-8-8.6-19.3-12.8-34.6-12.8-17.5 0-39.6 5.5-65.8 16.3-53.4 22.1-107.6 33.3-161.2 33.3S407.1 39.1 353.7 17c-26.2-10.8-48.3-16.3-65.8-16.3-15.3 0-26.7 4.2-34.6 12.8-13.9 15-19.5 45.6-16.2 88.4 9 115.6-24.6 218.9-99.6 307.2-16.7 19.6-28.2 37.4-34.2 53-5.3 13.7-6.3 25.2-3.1 35.1 3.2 9.9 10.8 18.6 23.1 26.6 14 9.1 33.7 16.7 58.7 22.7 112.5 27.2 200.3 91.1 260.8 189.9 13.4 21.9 26.8 38.4 39.7 48.9 11.6 9.3 22.1 13.8 32.5 13.8m0 18c-29.1 0-58.3-23.8-87.4-71.3-58.3-95-141.5-155.6-249.7-181.8-108.2-26.2-126.2-81.7-54-166.6s104-182.9 95.4-294.1C213 23 236-17.2 288.1-17.2c19.9 0 44.1 5.9 72.6 17.7 51.4 21.3 102.9 31.9 154.3 31.9s102.9-10.6 154.3-31.9c28.5-11.8 52.7-17.7 72.6-17.7 52.1 0 75 40.2 68.8 120.6-8.6 111.2 23.2 209.2 95.4 294.1s54.2 140.4-54 166.6C744 590.2 660.7 650.8 602.4 745.8c-29.1 47.5-58.2 71.3-87.4 71.3zM473.1 547c-28-45.5-68-74.5-119.9-87.1-52-12.5-60.6-39.1-25.9-79.8s50-87.6 45.8-140.9c-4.1-53.3 18.5-69.7 67.9-49.3s98.8 20.4 148.3 0c49.4-20.4 72.1-4 67.9 49.3-4.1 53.3 11.1 100.2 45.8 140.9s26 67.3-25.9 79.8c-52 12.5-92 41.6-119.9 87.1-28.2 45.5-56.2 45.5-84.1 0zM316.2 527.3c-6.4 0-12.6 3.4-15.9 9.5-4.7 8.8-1.4 19.7 7.4 24.4 60.8 32.6 98.4 72.4 98.8 72.8 6.8 7.3 18.2 7.6 25.4 0.9 7.3-6.8 7.6-18.2 0.9-25.4-1.7-1.8-42.1-44.6-108.1-79.9-2.7-1.6-5.6-2.3-8.5-2.3zM250.7 499.1c-7.3 0-14.2 4.5-16.9 11.7-3.5 9.3 1.3 19.7 10.6 23.1l10.5 3.9c9.3 3.5 19.7-1.3 23.1-10.6s-1.3-19.7-10.6-23.1l-10.5-3.9c-2-0.7-4.1-1.1-6.2-1.1z"  horiz-adv-x="1024" />

    
    <glyph glyph-name="xinaixin" unicode="&#58675;" d="M1066.66851 794.974576a351.536839 351.536839 0 0 1-481.992778 10.596996 351.536839 351.536839 0 0 1-481.992779-10.596996 344.226842 344.226842 0 0 1 0-490.031775l403.792815-400.137816a109.62695 109.62695 0 0 1 156.399928 0l403.792814 399.771816a344.226842 344.226842 0 0 1 0 490.397775z m-52.255976-438.506798L610.61972-43.670039a36.542983 36.542983 0 0 0-51.889976 0L154.574929 356.466778a271.874875 271.874875 0 0 0 0 386.982822 277.355873 277.355873 0 0 0 380.404825 6.211997l49.697978-42.75398 49.329977 42.75398a277.355873 277.355873 0 0 0 380.405825-8.039996 271.874875 271.874875 0 0 0 0-385.153823zM338.015845 713.119614a155.304929 155.304929 0 0 1-155.303929-155.303929 18.269992 18.269992 0 0 1 36.539983 0 118.761945 118.761945 0 0 0 118.764946 118.761946 18.269992 18.269992 0 0 1 0 36.541983z"  horiz-adv-x="1169" />

    
    <glyph glyph-name="location" unicode="&#58716;" d="M512.103132 575.879021a106.221743 106.221743 0 1 0-75.507022-31.354611A106.221743 106.221743 0 0 0 512.103132 575.879021m0 63.989002a170.850635 170.850635 0 1 1 120.939214-49.911422A169.570855 169.570855 0 0 1 512.103132 639.868023zM805.172761 771.685367a407.609942 407.609942 0 0 1-586.139257 0 431.285873 431.285873 0 0 1 0-599.576948L512.103132-128l293.069629 300.108419a431.285873 431.285873 0 0 1 0 599.576948z m-44.152411-557.344207l-248.917218-255.956007-248.917217 255.956007a365.377201 365.377201 0 0 0 0 508.712565 346.82039 346.82039 0 0 0 497.834435 0 365.377201 365.377201 0 0 0 0-508.712565z"  horiz-adv-x="1024" />

    
    <glyph glyph-name="up" unicode="&#58931;" d="M512.356 896c-282.933 0-512-229.067-512-512s229.067-512 512-512 512 229.067 512 512-229.067 512-512 512z m0-969.164c-252.353 0-457.173 204.8-457.173 457.164 0 252.363 204.82 457.154 457.173 457.154C764.711 841.154 969.51 636.362 969.51 384c0-252.365-204.309-457.164-457.154-457.164zM777.656 268.86L527.821 533.9s-15.465 17.267-34.055 0L259.848 268.86c-17.056-16.9-17.056-16.9 0-33.825 0 0 13.985-19.868 32.917 0L510.79 484.288l233.95-249.253h32.916V268.86M259.848 268.86c-15.348-17.693-9.769-24.14 0-33.825 0 0 13.985-19.868 32.917 0M259.848 268.86c-19.348-18.36-4.801-29.13 0-33.825 0 0 13.985-19.868 32.917 0M744.74 235.035c10.76-10.535 14.093-10.868 32.916 0V268.86M744.74 235.035c10.76-10.535 14.093-10.868 32.916 0 14.511 8.799 14.511 18.465 0 33.825"  horiz-adv-x="1024" />

    
    <glyph glyph-name="xiaoxi" unicode="&#59038;" d="M448 448a64 62.4 0 1 1 128 0 64 62.4 0 1 1-128 0ZM213.2 448a64 62.4 0 1 1 128 0 64 62.4 0 1 1-128 0ZM682.5 448a64 62.4 0 1 1 128 0 64 62.4 0 1 1-128 0ZM359.4-43c-9.6 0-19.1 4.3-25.4 12.5-10.8 14-8.2 34.1 5.8 44.9L563.6 187H872c48.5 0 88 39.5 88 88V659c0 48.5-39.5 88-88 88H152c-48.5 0-88-39.5-88-88v-384c0-48.5 39.5-88 88-88h69.6c17.7 0 32-14.3 32-32s-14.3-32-32-32H152C68.2 123 0 191.10000000000002 0 275V659C0 742.8 68.2 811 152 811h720c83.8 0 152-68.2 152-152v-384c0-83.8-68.2-152-152-152H585.5L378.9-36.299999999999955c-5.8-4.5-12.7-6.6-19.5-6.7z"  horiz-adv-x="1024" />

    
    <glyph glyph-name="chenggong" unicode="&#58958;" d="M512-128a512 512 0 1 0 0 1024 512 512 0 0 0 0-1024z m-71.318588 361.411765a29.334588 29.334588 0 0 1 20.48 8.252235L774.625882 546.635294a27.708235 27.708235 0 0 1 0 39.936 29.575529 29.575529 0 0 1-41.08047 0l-292.74353-284.912941L290.454588 447.849412a29.575529 29.575529 0 0 1-41.08047 0 27.708235 27.708235 0 0 1 0-39.996236l170.706823-166.128941a29.274353 29.274353 0 0 1 20.540235-8.252235z"  horiz-adv-x="1024" />

    
    <glyph glyph-name="PersonalCenter" unicode="&#58916;" d="M511.7 317.5c141.9 0 257.3 115.4 257.3 257.3S653.6 832.1 511.7 832.1 254.4 716.7 254.4 574.8s115.4-257.3 257.3-257.3z m0 461.2c112.4 0 203.9-91.4 203.9-203.9S624.1 371 511.7 371s-203.9 91.4-203.9 203.9 91.5 203.8 203.9 203.8z m168.6-517.9H343.9C186.9 260.8 59.1 133 59.1-24v-39.7h50.8V-24c0 129.1 105 234.1 234.1 234.1h336.4c129.1 0 234.1-105 234.1-234.1v-39.7h50.8V-24c-0.2 157-128 284.8-285 284.8z"  horiz-adv-x="1024" />

    
    <glyph glyph-name="sself" unicode="&#58634;" d="M1016.83-48.12800000000004c0-21.504-17.408-38.912-38.912-38.912-21.504 0-38.912 17.408-38.912 38.912v20.992c0 97.28-198.144 235.008-425.472 235.008-180.736 0-428.544-115.712-428.544-230.912v-25.088c0-21.504-17.408-38.912-38.912-38.912s-38.912 17.408-38.912 38.912v48.64c0 58.368 86.528 207.872 322.56 263.168-84.992 58.368-141.312 156.16-141.312 267.264 0 178.688 144.896 323.584 323.584 323.584 178.688 0 323.584-144.896 323.584-323.584 0-109.056-54.272-205.312-137.216-264.192 238.592-53.248 318.464-210.432 318.464-266.24v-48.64ZM757.76 531.456c0 135.68-110.08 245.76-245.76 245.76s-245.76-110.08-245.76-245.76 110.08-245.76 245.76-245.76 245.76 110.08 245.76 245.76Z"  horiz-adv-x="1024" />

    
    <glyph glyph-name="dingdan" unicode="&#58883;" d="M688.028165 151.269681H289.417241c-18.245619 0-33.419272-10.379523-33.419272-23.272474s14.708203-23.272473 33.419272-23.272473h398.610924c18.245619 0 33.419272 10.379523 33.419272 23.272473s-15.173653 23.272473-33.419272 23.272474zM679.650075 895.895739v-1.023989c-4.189045 0-22.527754 1.535983-68.653797 1.023989H207.125775C131.117877 895.895739 69.818182 835.480398 69.818182 761.241208v-754.586677C69.818182-67.584659 131.117877-128 207.125775-128h609.738803c76.007898 0 137.307593 60.415341 137.307593 134.654531V626.633222L679.650075 895.849194z m207.962822-271.357039l-139.867565 2.047977h4.701039c-31.929833 0-76.985342 30.254215-76.985342 67.071269l-1.070533 139.26248 213.222401-208.381726z m7.354101-627.612063c0-37.887587-31.417839-69.119246-70.189779-69.119246H199.213134c-38.771941 0-70.18978 30.719665-70.18978 69.119246V770.457108c0 37.887587 31.417839 69.119246 70.18978 69.119246h412.853678a4386.395785 4386.395785 0 0 1 1.023989-137.726498c0-76.287168 62.882223-137.726498 140.938099-137.726497h140.938098v-567.196722zM688.028165 382.272252H289.417241c-18.245619 0-33.419272-10.007164-33.419272-22.38812 0-12.427501 14.708203-22.434664 33.419272-22.434664h398.610924c18.245619 0 33.419272 10.007164 33.419272 22.434664 0 12.380956-15.173653 22.388119-33.419272 22.38812zM524.422677 570.174202h-247.619117C265.074234 570.174202 255.997969 560.167038 255.997969 547.739537c0-12.380956 9.12281-22.388119 20.759046-22.388119h247.665662c11.636237 0 20.759046 10.007164 20.759046 22.388119 0 12.427501-9.12281 22.434664-20.759046 22.434665z"  horiz-adv-x="1024" />

    
    <glyph glyph-name="nv" unicode="&#58890;" d="M602.112 175.3088a296.96 296.96 0 0 0-296.1408 297.0624 296.96 296.96 0 0 0 296.0384 296.96 296.96 296.96 0 0 0 296.0384-296.96 296.96 296.96 0 0 0-295.936-296.96zM179.4048 472.3712c0-83.5584 24.1664-161.5872 65.9456-227.1232l-66.7648-66.9696-60.8256 61.0304a63.2832 63.2832 0 0 1-89.4976 0L28.672 239.616a63.6928 63.6928 0 0 1 0-89.8048l60.8256-61.0304-70.9632-71.168a63.7952 63.7952 0 0 1 0-89.8048l-0.3072 0.2048c24.576-24.6784 64.8192-24.6784 89.4976 0l70.9632 71.2704 54.9888-55.296c24.576-24.7808 64.8192-24.7808 89.3952 0l-0.2048-0.3072a63.7952 63.7952 0 0 1 0 89.7024l-54.9888 55.1936 60.8256 60.928c73.728-62.8736 169.0624-100.7616 273.1008-100.7616C834.56 48.7424 1024 238.7968 1024 472.3712 1024 705.9456 834.56 896 601.8048 896a423.2192 423.2192 0 0 1-422.2976-423.6288z"  horiz-adv-x="1024" />

    
    <glyph glyph-name="shouji" unicode="&#59028;" d="M732.105 893.667H285.663C233.047 893.667 190 850.619 190 797.998v-829.099c0-52.618 43.047-95.663 95.663-95.663h446.442c52.616 0 95.662 43.045 95.662 95.663V797.998c0.001 52.621-43.045 95.669-95.662 95.669zM420.846 845.212h176.076c8.699 0 15.746-7.047 15.746-15.74 0-8.699-7.047-15.746-15.746-15.746H420.846c-8.698 0-15.746 7.047-15.746 15.746 0 8.693 7.047 15.74 15.746 15.74z m88.038-908.203c-35.22 0-63.773 28.56-63.773 63.778 0 35.227 28.554 63.774 63.773 63.774s63.779-28.548 63.779-63.774c0-35.219-28.559-63.778-63.779-63.778z m255.111 191.332H253.779V766.114h510.216v-637.773z m0 0"  horiz-adv-x="1024" />

    
    <glyph glyph-name="weixinzhifu" unicode="&#59017;" d="M395.846 292.415c-3.921-1.98-7.936-2.925-12.81-2.925-10.9 0-19.791 5.85-24.764 14.625l-2.006 3.864-78.106 167.913c-0.956 1.98-0.956 3.865-0.956 5.845 0 7.83 5.928 13.68 13.863 13.68 2.965 0 5.928-0.944 8.893-2.924l91.965-64.43c6.884-3.864 14.82-6.79 23.708-6.79 4.972 0 9.85 0.945 14.822 2.926L861.71 613.521c-77.149 89.804-204.684 148.384-349.135 148.384-235.371 0-427.242-157.158-427.242-351.294 0-105.368 57.361-201.017 147.323-265.447 6.88-4.905 11.852-13.68 11.852-22.45 0-2.925-0.957-5.85-2.006-8.775-6.881-26.318-18.831-69.334-18.831-71.223-0.958-2.92-2.013-6.79-2.013-10.75 0-7.83 5.929-13.68 13.865-13.68 2.963 0 5.928 0.944 7.935 2.925l92.922 53.674c6.885 3.87 14.82 6.794 22.756 6.794 3.916 0 8.889-0.944 12.81-1.98 43.496-12.644 91.012-19.53 139.48-19.53 235.372 0 427.24 157.158 427.24 351.294 0 58.58-17.78 114.143-48.467 163.003l-491.39-280.07-2.963-1.98z"  horiz-adv-x="1024" />

    
    <glyph glyph-name="zhifubao" unicode="&#59018;" d="M902.095 243.129l-250.96 84.392s19.287 28.87 39.874 85.472c20.59 56.606 23.539 87.689 23.539 87.689l-162.454 1.339v55.487l196.739 1.387v39.227H552.055v89.29h-96.358v-89.294H272.133v-39.227l183.564 1.304v-59.513h-147.24v-31.079h303.064s-3.337-25.223-14.955-56.606c-11.615-31.38-23.58-58.862-23.58-58.862s-142.3 49.804-217.285 49.804c-74.985 0-166.182-30.123-175.024-117.55-8.8-87.383 42.481-134.716 114.728-152.139 72.256-17.513 138.962 0.173 197.04 28.607 58.087 28.391 115.081 92.933 115.081 92.933l292.486-142.041c-11.932-69.3-72.067-119.914-142.387-119.844H266.37c-79.714-0.078-144.392 64.483-144.466 144.194V629.626c-0.074 79.72 64.493 144.399 144.205 144.47h491.519c79.714 0.073 144.396-64.49 144.466-144.203v-386.764z m-365.76 48.895s-91.302-115.262-198.879-115.262c-107.623 0-130.218 54.767-130.218 94.155 0 39.34 22.373 82.144 113.943 88.333 91.519 6.18 215.2-67.226 215.2-67.226h-0.047z"  horiz-adv-x="1024" />

    
    <glyph glyph-name="tuijian" unicode="&#58966;" d="M225.28 609.28h716.8a81.92 81.92 0 0 0 81.92-81.92v-286.72a81.92 81.92 0 0 0-81.92-81.92H225.28a81.92 81.92 0 0 0-81.92 81.92v62.21824L0 382.7712l143.36 85.83168V527.36a81.92 81.92 0 0 0 81.92 81.92zM810.27072 311.15264v-38.0928c0-18.1248-9.216-27.3408-27.3408-27.3408h-37.15072l-8.6016 28.2624c14.4384-1.2288 25.8048-1.8432 34.0992-1.8432 6.144 0 9.50272 3.072 9.50272 9.216v29.7984H699.392v27.648h81.38752v14.7456c7.9872 5.2224 18.7392 11.9808 32.256 20.2752H720.896v26.4192h133.91872v-20.8896c-12.9024-10.1376-27.9552-21.1968-44.544-33.4848v-7.0656h64.2048v-27.648h-64.2048z m-3.6864 151.42912h-29.47072v19.968h-74.3424v-19.6608h-29.4912v19.6608h-67.584v26.7264h67.584v19.3536h29.4912v-19.3536h74.3424v19.3536h29.47072v-19.3536h67.584v-26.7264h-67.584v-19.968z m-195.97312-44.21632v26.70592h85.4016c3.3792 7.0656 6.4512 14.1312 9.216 20.8896l28.2624-4.9152c-1.8432-5.5296-3.9936-10.752-6.144-15.9744h145.28512v-26.70592H714.1376c-9.216-15.6672-19.968-30.4128-32.256-44.544v-129.024H653.9264v101.6832c-11.3664-9.8304-23.3472-19.0464-36.2496-27.648l-18.432 23.9616c34.4064 22.1184 61.1328 47.3088 80.7936 75.5712h-69.4272z m-169.8816-171.4176h-28.8768v170.1888c-6.144-8.9088-12.9024-17.5104-19.968-26.112l-9.8304 30.72c24.2688 32.54272 41.472 67.87072 51.3024 106.57792l28.2624-5.5296c-4.3008-15.36-9.5232-30.1056-15.6672-44.2368h46.98112c-4.9152 14.7456-10.4448 29.4912-16.5888 43.6224l27.9552 7.3728c6.7584-18.7392 12.288-35.6352 15.9744-50.9952h47.0016v-27.9552h-50.0736v-35.30752h43.9296v-27.3408h-43.9296v-34.0992h43.9296v-27.0336h-43.9296v-38.0928h53.4528v-27.9552H440.7296v-13.824z m47.59552 203.65312H440.7296v-35.30752h47.59552v35.30752z m0-62.64832H440.7296v-34.0992h47.59552v34.0992z m0-99.2256v38.0928H440.7296v-38.0928h47.59552z m-127.16032 104.1408c8.9088 3.6864 17.5104 7.68 26.112 11.9808v-29.7984c-8.6016-3.9936-17.5104-7.68-26.112-11.3664v-83.5584c0-19.968-10.4448-30.1056-31.0272-30.1056h-27.648l-6.4512 28.2624c8.2944-1.2288 16.2816-1.8432 23.9616-1.8432 7.9872 0 11.9808 3.6864 11.9808 11.0592v65.1264c-11.6736-3.9936-23.6544-7.68-35.328-11.0592l-7.3728 29.4912c14.4384 3.072 28.5696 6.7584 42.7008 11.0592v64.49152h-36.864v28.2624h36.864v54.0672h29.184v-54.0672h28.5696v-28.2624h-28.5696v-53.73952z"  horiz-adv-x="1024" />

    
    <glyph glyph-name="pingjia" unicode="&#58888;" d="M576.985 626.2149999999999h269.784L531.692 892.062v-222.524c0-25.6 17.723-43.323 45.293-43.323z m17.723-659.692h-3.939l-35.446-92.554 94.523 27.57h3.939l238.277 204.8-64.985 63.015-232.37-202.83z m0 0M846.77 582.892H531.691c-27.569 0-45.292 17.723-45.292 45.293V892.062H129.97c-51.2 0-90.585-39.385-90.585-88.616v-842.83c0-49.231 39.384-88.616 90.584-88.616h259.939l456.861 448.985V582.892zM555.322 317.04600000000005h-358.4c-13.785 0-21.661 9.846-21.661 21.662 0 13.784 9.846 21.661 21.661 21.661h358.4c13.785 0 21.662-7.877 21.662-21.661 0-13.785-13.785-21.662-21.662-21.662z m133.908 131.939H196.923c-13.785 0-21.661 7.877-21.661 21.661 0 13.785 9.846 21.662 21.661 21.662h492.308c13.784 0 21.661-9.846 21.661-21.662 0-11.815-11.815-21.661-21.661-21.661z m291.446-248.123l-35.446 45.292c-3.939 3.938-9.846 3.938-13.785 0l-45.292-35.446c-3.939-3.939-3.939-9.846 0-13.785l35.446-45.292c3.938-3.939 9.846-3.939 13.785 0l45.292 35.446c3.938 0 3.938 9.846 0 13.785z m0 0"  horiz-adv-x="1024" />

    
    <glyph glyph-name="icon_type" unicode="&#58625;" d="M338.94335937 834H200.42773437C124.31445312 834 62 771.68554688 62 695.57226563V557.14453125c0-76.11328125 62.31445313-138.42773438 138.42773438-138.42773438H338.85546875c76.11328125 0 138.42773438 62.31445313 138.42773438 138.42773438V695.57226563C477.37109375 771.68554688 415.05664062 834 338.94335937 834z m484.62890626 0H685.05664063c-76.11328125 0-138.42773438-62.31445313-138.42773438-138.42773438V557.14453125c0-76.11328125 62.31445313-138.42773438 138.42773438-138.42773438h138.42773437c76.11328125 0 138.42773438 62.31445313 138.42773438 138.42773438V695.57226563C962 771.68554688 899.68554688 834 823.57226563 834zM338.94335937 349.37109375H200.42773437C124.31445312 349.37109375 62 287.05664062000005 62 210.94335937000005v-138.42773437C62-3.685546879999947 124.31445312-66 200.42773437-66H338.85546875c76.11328125 0 138.42773438 62.31445313 138.42773438 138.42773438V210.94335937000005c0.08789063 76.11328125-62.2265625 138.42773438-138.33984376 138.42773438z m484.62890626 0H685.05664063c-76.11328125 0-138.42773438-62.31445313-138.42773438-138.42773438v-138.42773437c0-76.11328125 62.31445313-138.42773438 138.42773438-138.42773438h138.42773437c76.11328125 0 138.42773438 62.31445313 138.42773438 138.42773438V210.94335937000005c0.08789063 76.11328125-62.2265625 138.42773438-138.33984376 138.42773438z"  horiz-adv-x="1024" />

    
    <glyph glyph-name="dizhi" unicode="&#58713;" d="M884.815534-90.221359c0-20.87767-16.900971-37.778641-37.778641-37.778641H286.819417c-20.87767 0-37.778641 16.900971-37.77864 37.778641l84.504854 296.264077c0 20.87767 16.900971 37.778641 37.778641 37.778641h390.710679c20.87767 0 37.778641-16.900971 37.778641-37.778641l85.001942-296.264077z m0 0M805.281553-17.149515c0-20.87767-16.900971-37.778641-37.77864-37.77864H207.285437c-20.87767 0-37.778641 16.900971-37.778641 37.77864l84.504854 296.264078c0 20.87767 16.900971 37.778641 37.778641 37.778641h390.71068c20.87767 0 37.778641-16.900971 37.778641-37.778641l85.001941-296.264078z m0 0M716.8 42.003883c0-18.88932-15.409709-34.299029-34.299029-34.299029H173.483495c-18.88932 0-34.299029 15.409709-34.299029 34.299029l77.048544 269.42136c0 18.88932 15.409709 34.299029 34.299029 34.299029h354.920388c18.88932 0 34.299029-15.409709 34.299029-34.299029l77.048544-269.42136z m0 0M456.326214 896C289.801942 896 155.091262 761.28932 155.091262 594.765049s236.116505-421.03301 236.116505-421.03301c35.790291-42.252427 94.943689-42.252427 130.733981 0 0 0 235.619417 254.508738 235.619417 420.535922C757.561165 761.28932 622.353398 896 456.326214 896z m0-407.61165c-64.124272 0-116.318447 52.194175-116.318447 116.318446 0 64.124272 52.194175 116.318447 116.318447 116.318447 64.124272 0 116.318447-52.194175 116.318446-116.318447-0.497087-64.621359-52.194175-116.318447-116.318446-116.318446z m0 0M576.124272 603.215534C576.124272 537.102913 522.438835 483.417476 456.326214 483.417476S336.528155 537.102913 336.528155 603.215534s53.685437 119.798058 119.798059 119.798058 119.798058-53.685437 119.798058-119.798058z m0 0"  horiz-adv-x="1024" />

    
    <glyph glyph-name="gouwuche2" unicode="&#58649;" d="M347.136 112.63999999999999q19.456 0 36.864-7.168t30.72-19.968 20.48-30.208 7.168-36.864-7.168-36.864-20.48-30.208-30.72-20.48-36.864-7.68q-20.48 0-37.376 7.68t-30.208 20.48-20.48 30.208-7.168 36.864 7.168 36.864 20.48 30.208 30.208 19.968 37.376 7.168zM773.12 110.59199999999998q19.456 0 37.376-7.168t30.72-19.968 20.48-30.208 7.68-36.864-7.68-36.864-20.48-30.208-30.72-20.48-37.376-7.68-36.864 7.68-30.208 20.48-20.48 30.208-7.68 36.864 7.68 36.864 20.48 30.208 30.208 19.968 36.864 7.168zM945.152 692.2239999999999q28.672 0 44.544-7.68t22.528-18.944 6.144-24.064-3.584-22.016-12.8-37.888-22.016-62.976-24.064-68.096-17.92-53.248q-13.312-40.96-33.792-56.832t-50.176-15.872l-34.816 0-66.56 0-87.04 0-95.232 0-253.952 0 15.36-92.16 516.096 0q49.152 0 49.152-41.984 0-20.48-9.728-35.328t-38.4-14.848l-49.152 0-95.232 0-117.76 0-119.808 0-98.304 0-56.32 0q-20.48 0-34.304 9.216t-23.04 24.064-14.848 32.256-8.704 32.768q-1.024 6.144-5.632 29.696t-11.264 58.88-14.848 78.848-16.384 87.552q-19.456 103.424-44.032 230.4l-76.8 0q-15.36 0-25.6 7.68t-16.896 18.432-9.216 23.04-2.56 22.528q0 20.48 13.824 33.792t37.376 13.312l22.528 0 20.48 0 25.6 0 34.816 0q20.48 0 32.768-6.144t19.456-15.36 10.24-19.456 5.12-17.408q2.048-8.192 4.096-23.04t4.096-30.208q3.072-18.432 6.144-38.912l700.416 0z"  horiz-adv-x="1024" />

    
    <glyph glyph-name="fukuan1" unicode="&#58895;" d="M960 38.912000000000035c0-12.8-2.048-24.576-6.656-35.32288-4.096-10.75712-10.24-20.48-18.43712-28.67712-7.68-8.192-16.896-14.84288-27.64288-19.456-10.75712-4.60288-24.576-8.192-37.376-8.192H176.128c-12.288 0-43.52 3.584-54.784 8.192-11.264 4.608-20.992 11.264-29.696 19.456-8.704 8.19712-15.36 17.92-20.48 28.67712-5.12 10.752-7.168 22.52288-7.168 35.32288v496.64c0 25.088 8.704 46.592 26.112 64s38.4 19.456 63.488 19.456h716.8c25.088 0 46.08-2.048 63.488-19.456 17.40288-17.408 26.112-38.912 26.112-64v-140.288h-224.256c-25.088 0-46.08-3.584-63.488-20.99712-17.40288-17.40288-26.112-38.4-26.112-63.48288 0.512-17.408 4.096-32.256 10.752-45.568 5.12-11.264 13.824-21.504 26.11712-30.72 12.28288-9.216 29.696-17.92 52.736-17.92h224.256v-177.664h-0.00512z m-268.288 271.872c0 12.8 4.10112 23.04 12.8 31.744 8.704 8.69888 18.944 12.8 31.744 12.8s23.04-4.10112 31.744-12.8c8.704-8.704 12.8-19.46112 12.8-31.744 0-12.8-4.096-23.55712-12.8-32.256-8.704-8.704-18.944-13.31712-31.744-13.31712s-23.04 4.608-31.744 13.31712c-8.704 8.704-12.8 19.456-12.8 32.256zM825.344 664.064H377.344c35.328 18.432 69.12 44.544 100.864 61.44 27.648 14.336 54.784 29.184 81.92 44.032 27.136 14.336 48.12288 26.112 62.976 33.792 23.04 12.8 43.52 18.432 61.44 17.408 17.92-1.024 33.28-4.096 46.08-9.216 14.336-7.168 27.136-16.896 37.376-28.672l57.344-118.784z"  horiz-adv-x="1024" />

    
    <glyph glyph-name="iconfontwoyaofahuo" unicode="&#58896;" d="M504.66136 722.718445c0.690732 0.399089 0.704035 1.072425 0.028653 1.497097L347.570555 823.09148c-0.675382 0.424672-1.796926 0.454348-2.493797 0.064468L63.577502 665.904485c-0.696872-0.388856-0.823761-1.187035-0.282433-1.77339l117.106138-127.000486c0.541329-0.586354 1.548262-0.73985 2.238994-0.340761L504.66136 722.718445zM504.945839 345.93607899999995c0.534166 0.592494 0.405229 1.403976-0.284479 1.803066L182.641225 533.667741c-0.690732 0.399089-1.662873 0.214894-2.160199-0.408299L65.262888 388.819772c-0.497327-0.623193-0.352017-1.480724 0.323365-1.904373l302.9498-190.166107c0.675382-0.424672 1.664919-0.286526 2.199085 0.305969L504.945839 345.93607899999995zM510.535137 347.738122c-0.690732-0.399089-0.809435-1.201361-0.26299-1.782599l139.021264-147.960867c0.546446-0.581238 1.552356-0.720408 2.235924-0.309038l307.738873 185.362708c0.683569 0.411369 0.822738 1.24741 0.309038 1.858324L834.745147 533.282978c-0.5137 0.610914-1.499144 0.783853-2.189875 0.384763L510.535137 347.738122zM655.730007 139.91486599999996c-0.662079-0.445138-1.660826-0.341784-2.218528 0.228197L508.569366 288.283008c-0.557702 0.569982-1.447978 0.548492-1.978051-0.048095L374.445646 139.63038700000004c-0.530073-0.596588-1.509377-0.725524-2.174526-0.286526L187.215404 261.203256c-0.666172 0.438998-1.211595 0.145309-1.211595-0.652869l0-114.211205c0-0.797156 0.555655-1.791809 1.235131-2.209318l322.030367-198.091614c0.679475-0.417509 1.794879-0.423649 2.478448-0.01228L836.62803 141.24618699999996c0.683569 0.411369 1.24127 1.399883 1.238201 2.197038l-0.423649 117.106138c-0.00307 0.797156-0.546446 1.086751-1.209548 0.641613L655.730007 139.91486599999996zM959.620225 664.161794c0.558725 0.568958 0.443092 1.346671-0.257873 1.727341L670.097226 823.171298c-0.700965 0.381693-1.826602 0.344854-2.50096-0.079818l-157.089781-98.875938c-0.674359-0.424672-0.661056-1.099031 0.028653-1.497097l322.021158-185.92962c0.690732-0.399089 1.714038-0.258896 2.272763 0.310062L959.620225 664.161794zM960.636369 665.196357"  horiz-adv-x="1024" />

    
    <glyph glyph-name="nan" unicode="&#58892;" d="M948.338 808.22a47.56 47.56 0 0 1-24.462 12.687L687.218 839.964a47.73 47.73 0 0 1-6.258-95.175l124.587-12.686-161.565-164.978a409.259 409.259 0 0 1-155.477 82.49A353.621 353.621 0 0 1 65.877 376.547a364.885 364.885 0 0 1 267.378-438.045A356.58 356.58 0 0 1 761.856 211.57a363.634 363.634 0 0 1-49.493 279.154l149.049 158.663-6.258-114.233a48.81 48.81 0 0 1 43.804-50.745 48.014 48.014 0 0 1 49.494 44.43l18.773 241.095a45.511 45.511 0 0 1-18.773 38.059z m-291.84-571.05A251.62 251.62 0 0 0 351.8 46.763a257.138 257.138 0 0 0-186.482 310.954 251.335 251.335 0 0 0 304.583 190.35A265.785 265.785 0 0 0 656.498 237.17z m0 0"  horiz-adv-x="1024" />

    
    <glyph glyph-name="share3" unicode="&#58644;" d="M956.18844445 635.22133333L717.02755555 820.11022222c-50.06222222 38.68444445-122.76622222 2.95822222-122.76622222-60.30222222v-51.2c-214.92622222-1.47911111-389.00622222-181.81688889-389.00622222-405.04888889 0-48.58311111 8.07822222-91.81866667 21.61777778-135.05422222C280.80355555 325.17688889 424.04977778 438.61333333 594.14755555 438.61333333v-48.58311111c0-63.26044445 72.704-98.98666667 122.76622223-60.30222222l239.27466667 184.88888889c39.48088889 30.49244445 39.48088889 90.112 0 120.60444444zM803.61244445-59.61955554999997H222.66311111c-105.92711111 0-191.71555555 85.90222222-191.71555556 191.71555555V564.2239999999999c0 105.92711111 85.90222222 191.71555555 191.71555556 191.71555555h56.43377778c30.26488889 0 54.72711111-24.46222222 54.72711111-54.7271111s-24.46222222-54.72711111-54.72711111-54.72711112h-56.43377778c-45.51111111 0-82.37511111-36.864-82.37511111-82.37511111v-432.128c0-45.51111111 36.864-82.37511111 82.37511111-82.37511111h580.83555556c45.51111111 0 82.37511111 36.864 82.37511111 82.37511111v150.18666667c0 30.26488889 24.46222222 54.72711111 54.72711111 54.72711111s54.72711111-24.46222222 54.72711111-54.72711111v-150.18666667c0-105.81333333-85.90222222-191.60177778-191.71555555-191.60177777z"  horiz-adv-x="1024" />

    
    <glyph glyph-name="kefu" unicode="&#58920;" d="M459.946825 893.21664A511.989382 511.989382 0 1 0 251.922048-56.349122l-143.589749-49.45352a20.88684 20.88684 0 0 0-27.315797 23.76678l29.090305 149.640533A511.262124 511.262124 0 0 0 459.946825 893.21664z m0.698167-458.085046a51.198938 51.198938 0 0 1 0-102.368786H767.69317a51.198938 51.198938 0 1 1 0 102.368786z m-204.708482-102.368786a51.169848 51.169848 0 1 1-51.169847 51.169848 51.228029 51.228029 0 0 1 51.140757-51.169848z"  horiz-adv-x="1025" />

    
    <glyph glyph-name="shijian" unicode="&#59000;" d="M213.340415 86.347419c-165.93049 165.93049-165.93049 434.962058 0 600.892548 165.934739 165.93049 434.966307 165.93049 600.896797 0 165.93049-165.93049 165.93049-434.962058 0-600.892548-165.93049-165.934739-434.962058-165.934739-600.892548 0z m45.068747 45.064498c141.044315-141.040066 369.719237-141.040066 510.759303 0 141.044315 141.044315 141.044315 369.719237 0 510.759303-141.040066 141.044315-369.714988 141.044315-510.759303 0-141.040066-141.040066-141.040066-369.714988 0-510.759303z m190.183568 241.876448l0.169959 185.199535c0.016996 23.114357 10.397212 41.852282 33.511568 41.873527 23.110108 0.021245 29.275353-18.712432 29.258357-41.822539l-0.148714-166.244913 171.318175 0.157212c23.114357 0.016996 41.843784-6.148249 41.822539-29.262606-0.016996-23.110108-18.763419-33.490324-41.873527-33.511569l-189.682191-0.169958a41.61434 41.61434 0 0 0-26.717477 9.6239 41.720564 41.720564 0 0 0-17.65444 34.157411z"  horiz-adv-x="1024" />

    
    <glyph glyph-name="shouye" unicode="&#58887;" d="M213.63712-54.144H810.3424v332.34944a36.864 36.864 0 0 0 18.64192 31.98464 37.61152 37.61152 0 0 0 37.2992 0 36.864 36.864 0 0 0 18.64192-31.98464v-369.28c0-20.39296-16.6912-36.92544-37.29408-36.92544H176.34304c-20.59264 0-37.28896 16.5376-37.28896 36.92544v369.28c0 20.39296 16.69632 36.92032 37.28896 36.92032 20.59776 0 37.29408-16.52736 37.29408-36.9152v-332.35456zM511.98464 806.78912l-448.26624-443.87328a37.56544 37.56544 0 0 0-36.03456-9.58464 37.13536 37.13536 0 0 0-26.40384 26.10688 36.70016 36.70016 0 0 0 9.63072 35.69664l474.6752 470.016A37.4784 37.4784 0 0 0 511.97952 896a37.4784 37.4784 0 0 0 26.40384-10.84928l474.6752-470.016a36.72576 36.72576 0 0 0 9.66144-35.71712 37.16096 37.16096 0 0 0-26.40384-26.14272 37.59616 37.59616 0 0 0-36.06528 9.56928L511.98464 806.71744v0.07168z"  horiz-adv-x="1024" />

    
    <glyph glyph-name="juxing" unicode="&#60542;" d="M746.666667 885.333333A202.666667 202.666667 0 0 0 949.333333 682.666667v-597.333334a202.666667 202.666667 0 0 0-202.666666-202.666666h-469.333334A202.666667 202.666667 0 0 0 74.666667 85.333333V682.666667A202.666667 202.666667 0 0 0 277.333333 885.333333h469.333334z m0-64h-469.333334A138.666667 138.666667 0 0 1 138.666667 682.666667v-597.333334a138.666667 138.666667 0 0 1 138.666666-138.666666h469.333334A138.666667 138.666667 0 0 1 885.333333 85.333333V682.666667a138.666667 138.666667 0 0 1-138.666666 138.666666zM512 202.666667a32 32 0 1 0 0-64H298.666667a32 32 0 1 0 0 64h213.333333z m-213.333333 213.333333h426.666666a32 32 0 0 0 4.352-63.701333L725.333333 352H298.666667a32 32 0 0 0-4.352 63.701333L298.666667 416h426.666666H298.666667z m426.666666 213.333333a32 32 0 0 0 4.352-63.701333L725.333333 565.333333H298.666667a32 32 0 0 0-4.352 63.701334L298.666667 629.333333h426.666666z"  horiz-adv-x="1024" />

    
    <glyph glyph-name="bianpinghuatubiaosheji-" unicode="&#58949;" d="M426.542817 895.400244h170.530695C710.527404 897.899228 833.477436 863.113365 911.045912 783.045905c80.167419-77.568476 114.853323-200.518508 112.454298-313.972399v-170.530696c2.399025-113.453892-32.286878-236.403924-112.454298-313.972399-77.568476-80.167419-200.518508-114.853323-313.9724-112.454298H426.542817c-113.453892-2.399025-236.403924 32.286878-313.9724 112.454298C32.402998 62.038927-2.282906 184.988959 0.116119 298.442851V468.973546C-2.282906 582.527397 32.402998 705.47743 112.570417 783.045905 190.138893 863.113365 313.088925 897.899228 426.542817 895.400244zM112.570417 783.045905C36.90117 709.775683 1.715469 596.121872 0.116119 488.165746c137.943939 0 249.79848 111.954501 249.798481 249.89844 0 42.782613-10.795613 83.066241-29.687935 118.251942-40.583507-17.892728-77.568476-42.182857-107.656248-73.270223zM659.548122 124.413578H364.068207c-28.988219 0-52.478672 23.490453-52.478672 52.478672V552.239706L438.637901 492.164121c0-0.499797-0.099959-0.999594-0.099959-1.49939 0-40.883385 33.086553-73.969938 73.969938-73.969938s73.969938 33.086553 73.969938 73.969938v0.699715l125.648936 59.37587v-373.748107c-0.099959-28.988219-23.590413-52.578632-52.578632-52.578631z m-94.061773 131.24666c0 4.997969-4.098334 9.096303-9.096303 9.096303h-33.786269v23.090616c0 0.399838-0.099959 0.799675-0.099959 1.099553h33.886228c4.997969 0 9.096303 4.098334 9.096303 9.096303V301.241713c0 4.997969-4.098334 9.096303-9.096303 9.096304h-21.091428l19.492078 19.492078c4.198294 4.198294 4.198294 10.995531 0 15.193825-4.198294 4.198294-10.995531 4.198294-15.193825 0l-28.7883-28.988219-28.388463 28.388463c-4.198294 4.198294-10.995531 4.198294-15.193825 0-4.198294-4.198294-4.198294-10.995531 0-15.193825l18.992281-18.992282h-18.892322c-4.997969 0-9.096303-4.098334-9.096303-9.096303v-3.1987c0-4.997969 4.098334-9.096303 9.096303-9.096303h33.886229c0-0.399838-0.099959-0.699716-0.09996-1.099553v-23.090616h-33.786269c-4.997969 0-9.096303-4.098334-9.096303-9.096303v-3.1987c0-4.997969 4.098334-9.096303 9.096303-9.096304h33.786269v-44.581881c0-4.997969 4.098334-9.096303 9.096304-9.096303h3.298659c4.997969 0 9.096303 4.098334 9.096303 9.096303V243.265275h33.786269c4.997969 0 9.096303 4.098334 9.096303 9.096304v3.298659z m-52.978469 308.974431c-32.986594 0-60.975219-21.691185-70.47136-51.579038l-130.446985 61.674935v15.793581c0 28.988219 23.490453 52.478672 52.478672 52.478673h295.479915c28.988219 0 52.478672-23.490453 52.478672-52.478673v-17.193012l-128.847635-60.97522c-9.296222 30.287691-37.384807 52.278754-70.671279 52.278754zM543.595246 483.367696h-25.389681v-25.389681c0-3.498578-2.798863-6.3974-6.3974-6.3974s-6.3974 2.798863-6.397401 6.3974v25.389681h-25.48964c-3.498578 0-6.3974 2.798863-6.3974 6.3974s2.798863 6.3974 6.3974 6.3974h25.48964v25.489641c0 3.498578 2.798863 6.3974 6.397401 6.3974s6.3974-2.798863 6.3974-6.3974V496.162496h25.389681c3.498578 0 6.3974-2.798863 6.3974-6.3974s-2.898822-6.3974-6.3974-6.3974zM630.659862 158.499725c0-11.695247 1.199513-23.090616 3.398619-34.086147h25.489641c28.988219 0 52.478672 23.490453 52.478672 52.478672V304.240495c-48.780175-30.187732-81.366932-84.165794-81.366932-145.74077z"  horiz-adv-x="1024" />

    
    <glyph glyph-name="shezhi" unicode="&#58886;" d="M512 711.68L228.1984 547.84v-327.68L512 56.32l283.8016 163.84V547.84L512 711.68z m232.6016-461.9776L512 115.456l-232.6016 134.2976V518.2976L512 652.544l232.6016-134.2976v-268.544zM389.12 384c0-67.84 55.04-122.88 122.88-122.88s122.88 55.04 122.88 122.88-55.04 122.88-122.88 122.88-122.88-55.04-122.88-122.88z m194.56 0c0-39.5264-32.1536-71.68-71.68-71.68s-71.68 32.1536-71.68 71.68 32.1536 71.68 71.68 71.68 71.68-32.1536 71.68-71.68z"  horiz-adv-x="1024" />

    
    <glyph glyph-name="liuyan" unicode="&#58898;" d="M879.8 447.8V72c0-31.2-25.5-56.7-56.7-56.7H201.5c-31.2 0-56.7 25.5-56.7 56.7V693.6c0 31.2 25.5 56.7 56.7 56.7h374.6v47H188.4c-49.8 0-90.6-40.8-90.6-90.6v-648.1c0-49.8 40.8-90.6 90.6-90.6h648.1c49.8 0 90.6 40.8 90.6 90.6V447.8h-47.3zM775.2 726.8l114.5-114.6-271.5-271.5-193.5-78.1 78.9 192.6z"  horiz-adv-x="1024" />

    
    <glyph glyph-name="icon_A" unicode="&#59058;" d="M611.2 650.6688H408.5376a32 32 0 0 0 0 64H611.2a32 32 0 1 0 0-64zM806.3488-44.799999999999955H217.6512A141.0112 141.0112 0 0 0 76.8 96.0512V573.8176000000001a141.0112 141.0112 0 0 0 140.8512 140.8512h8.48a32 32 0 0 0 0-64h-8.48A76.9344 76.9344 0 0 1 140.8 573.8176000000001v-477.7664A76.9408 76.9408 0 0 1 217.6512 19.200000000000045h588.6976A76.9408 76.9408 0 0 1 883.2 96.0512V573.8176000000001a76.9408 76.9408 0 0 1-76.8512 76.8512h-9.7664a32 32 0 1 0 0 64h9.7664A141.0112 141.0112 0 0 0 947.2 573.8176000000001v-477.7664A141.0112 141.0112 0 0 0 806.3488-44.799999999999955zM317.8688 554.6687999999999a32 32 0 0 0-32 32V774.4a32 32 0 0 0 64 0v-187.7312a32 32 0 0 0-32-32z m388.2688 0a32 32 0 0 0-32 32V774.4a32 32 0 0 0 64 0v-187.7312a32 32 0 0 0-32-32zM477.6192 140.79999999999995a51.2512 51.2512 0 0 0-35.1488 14.016L301.5552 286.84159999999997a32.1536 32.1536 0 0 0-1.5936 45.2608 31.712 31.712 0 0 0 45.0048 1.6064l132.2688-123.9232L697.4848 435.2a31.7184 31.7184 0 0 0 45.0304 0.3904 32.1536 32.1536 0 0 0 0.3904-45.2864l-228.5312-233.8816A51.2384 51.2384 0 0 0 477.6192 140.79999999999995z"  horiz-adv-x="1024" />

    
    <glyph glyph-name="test" unicode="&#58971;" d="M630.339494 91.56646h248.50533a25.123778 25.123778 0 0 1 17.684127 7.164929 24.208038 24.208038 0 0 1 7.25798 17.215918v24.296658a24.196222 24.196222 0 0 1-7.25798 17.21444 25.142979 25.142979 0 0 1-17.684127 7.167884H630.339494a25.114916 25.114916 0 0 1-17.684127-7.074833 24.184406 24.184406 0 0 1-7.263888-17.307491v-24.389709c0-6.513572 2.608383-12.656417 7.355462-17.214441a25.109008 25.109008 0 0 1 17.591076-7.166406v0.093051zM452.486481 135.355093L334.788744 256.901893l117.697737 122.648643-49.49724 51.14705L235.795741 256.901893l167.1935-172.693849zM1019.344494 895.908426V896H99.588234C44.581782 896 0 852.255677 0 798.368791v-828.823248c0-53.892793 44.488731-97.545543 99.495183-97.545543h919.847834c54.914878 0 99.495183 43.7458 99.495184 97.545543V798.460365C1118.839678 852.255677 1074.257895 895.908426 1019.344494 895.908426m-48.324501-73.282856C1005.748705 822.62557 1033.900334 794.473941 1033.900334 759.746706c0-34.727235-28.153106-62.878864-62.880341-62.878864-34.725758 0-62.87591 28.151629-62.87591 62.878864-0.001477 34.727235 28.150152 62.878864 62.87591 62.878864m-174.359906 0c34.727235 0 62.878864-28.151629 62.878864-62.878864 0-34.727235-28.153106-62.878864-62.878864-62.878864s-62.880341 28.151629-62.880342 62.878864c0 34.727235 28.153106 62.878864 62.880342 62.878864m-174.361384 0c34.727235 0 62.878864-28.151629 62.878864-62.878864 0-34.727235-28.153106-62.878864-62.878864-62.878864s-62.878864 28.151629-62.878864 62.878864c0 34.727235 28.151629 62.878864 62.878864 62.878864m421.986422-804.217898l-0.093051-0.091574c0-53.796788-19.540716-73.067214-74.548646-73.067213H149.194772c-54.90897 0-74.640219 19.270425-74.640219 73.15731V627.76342h969.730572v-609.355748z"  horiz-adv-x="1118" />

    
    <glyph glyph-name="shouhuo" unicode="&#58635;" d="M928.282 618.4300000000001l-76.0787 146.396C833.402 800.9082 786.831 829.1648 746.182 829.1648L278.411 829.1648c-40.5925 0-87.3259-28.0938-106.292-63.9055l-76.0235-143.407c-16.4108-31.0287-29.2348-82.7619-29.2348-117.812l0-481.738c0-46.0273 37.3865-83.468 83.467-83.468l723.339 0c46.0273 0 83.469 37.4417 83.469 83.468l0 478.314C957.138 535.613 944.476 587.4010000000001 928.282 618.4300000000001ZM145.33 595.823l75.9692 143.353c9.50959 17.9324 36.7346 34.3442 57.1128 34.3442l467.771 0c20.2707 0 47.2778-16.4108 56.6789-34.3984l76.0797-146.341c3.58669-6.95541 6.95541-15.8684 10.0519-25.4322L134.19 567.3489999999999C137.559 578.054 141.255 588.162 145.33 595.823ZM901.491 22.302999999999997c0-15.324-12.4434-27.8216-27.8227-27.8216L150.328-5.518000000000029c-15.3772 0-27.8216 12.4987-27.8216 27.8216L122.507 504.041c0 2.22774 0.434905 5.16258 0.651846 7.66149l777.408 0c0.326435-3.69516 0.924045-7.8242 0.924045-11.0855L901.49 22.302999999999997ZM745.913 358.46000000000003L605.765 208.74900000000002l-56.5684 56.4609c-10.8685 10.8685-28.4745 10.8685-39.3441 0-10.8675-10.8675-10.8675-28.4745 0-39.342l76.2967-76.0797c5.43478-5.43376 12.4987-8.15063 19.6168-8.15063 3.85889 0 7.66149 0.978281 11.3045 2.60841 4.0748 1.41319 7.87843 3.58669 11.0302 6.9022l158.46 169.273c10.4879 11.1939 9.89025 28.801-1.30369 39.3431C774.061 370.198 756.455 369.653 745.913 358.46000000000003ZM429.046 317.813L262.056 317.813c-15.325 0-27.8227-12.4444-27.8227-27.8227s12.4987-27.8227 27.8227-27.8227l166.991 0c15.3782 0 27.8227 12.4444 27.8227 27.8227S444.425 317.813 429.046 317.813ZM344.6 199.13099999999997l-83.468 0c-15.3782 0-27.8216-12.4987-27.8216-27.8216 0-15.4325 12.4434-27.8227 27.8216-27.8227l83.468 0c15.3793 0 27.8227 12.3902 27.8227 27.8227C372.423 186.63199999999995 359.979 199.13099999999997 344.6 199.13099999999997Z"  horiz-adv-x="1024" />

    
    <glyph glyph-name="right" unicode="&#59255;" d="M310.123 6.598c-15.686-12.217-38.306-9.405-50.523 6.281-12.095 15.529-9.46 37.854 5.814 50.153l0.467 0.37 411.542 320.532-411.548 320.669c-15.527 12.098-18.434 34.389-6.633 50.051l0.362 0.473c12.098 15.526 34.39 18.433 50.052 6.633l0.472-0.363 448-349.07c18.315-14.271 18.496-41.83 0.544-56.363l-0.55-0.437-448-348.929z"  horiz-adv-x="1024" />

    
    <glyph glyph-name="che1" unicode="&#58629;" d="M1005.94270776 98.96922112000004H265.53154332c-21.94242333 0-42.52558222 8.54395221-57.86585999 24.0784111-15.3402789 15.53445888-23.88423111 35.92343666-23.69005112 57.86586112l2.71853112 545.25952c0 21.74824334-7.57304889 36.3117989-45.24411334 42.3314011h-0.19417999l-108.74121557 18.64135111c-10.48576 1.74762667-17.67044779 11.84502557-15.92281998 22.33078557 1.74762667 10.48576 11.84502557 17.67044779 22.33078442 15.92282112l108.54703446-18.64135112c51.65207666-8.15559111 77.86647666-35.34089443 77.86647666-80.7791889L222.61759999 180.52513223999995c0-11.45666333 4.27197667-22.13660445 12.42756779-30.09801558 8.15559111-8.15559111 18.83553223-12.62174777 30.29219555-12.62174777h740.41116445c10.67994112 0 19.41807445-8.73813333 19.41807331-19.41807445s-8.54395221-19.41807445-19.22389333-19.41807332zM950.60119665 210.42896555000004l-685.65219556 2.13598891c-21.55406222 0.19418112-41.74885888 8.54395221-56.89495665 23.88423111-15.14609778 15.3402789-23.30168889 35.53507555-23.30168889 57.08913777l2.13598777 402.73085554L962.64040333 638.4033188999999c35.14671445-1.35926557 62.72037888-29.90383445 62.72037888-65.0505489V284.99437c0-41.16631666-33.59326777-74.56540445-74.75958556-74.56540445zM265.33736333 251.40110221999998l685.45801444-2.13598776c19.80643555 0 35.92343666 16.1170011 35.92343666 35.72925554V573.35277c0 14.17519445-11.26248334 25.8260389-25.43767666 26.2144h-0.77672334l-734.58574222 54.75896888-1.74762667-361.17617778c0-11.06830222 4.27197667-21.55406222 12.03920669-29.51547221 7.37886777-7.76723001 17.86462777-12.23338667 29.1271111-12.23338667zM340.87367111 34.889576680000005m-72.42941668 0a72.42941667 72.42941667 0 1 1 144.85883335 0 72.42941667 72.42941667 0 1 1-144.85883335 0ZM340.87367111-56.957914449999976c-50.68117333 0-91.84748999 41.16631666-91.84749 91.84749113s41.16631666 91.84748999 91.84749 91.84748999c50.68117333 0 91.84748999-41.16631666 91.84748998-91.84748999s-41.16631666-91.84748999-91.84748998-91.84749113z m0 144.85883335c-29.32129223 0-53.01134222-23.69004999-53.01134223-53.01134222s23.69004999-53.01134222 53.01134223-53.01134222 53.01134222 23.69004999 53.01134222 53.01134222-23.69004999 53.01134222-53.01134222 53.01134222zM896.81313223 34.889576680000005m-72.42941668 0a72.42941667 72.42941667 0 1 1 144.85883221 0 72.42941667 72.42941667 0 1 1-144.85883221 0ZM896.81313223-56.957914449999976c-50.68117333 0-91.84748999 41.16631666-91.84749114 91.84749113s41.16631666 91.84748999 91.84749114 91.84748999 91.84748999-41.16631666 91.84748998-91.84748999-41.16631666-91.84748999-91.84748998-91.84749113z m0 144.85883335c-29.32129223 0-53.01134222-23.69004999-53.01134223-53.01134222s23.69004999-53.01134222 53.01134223-53.01134222 53.01134222 23.69004999 53.01134222 53.01134222-23.69004999 53.01134222-53.01134222 53.01134222zM780.30468778 469.66025444H384.56433777c-10.67994112 0-19.41807445 8.73813333-19.41807445 19.41807445s8.73813333 19.41807445 19.41807445 19.41807445h395.74035001c10.67994112 0 19.41807445-8.73813333 19.41807331-19.41807445s-8.73813333-19.41807445-19.41807331-19.41807445zM780.30468778 358.00632888999996H384.56433777c-10.67994112 0-19.41807445 8.73813333-19.41807445 19.41807445s8.73813333 19.41807445 19.41807445 19.41807332h395.74035001c10.67994112 0 19.41807445-8.73813333 19.41807331-19.41807332s-8.73813333-19.41807445-19.41807331-19.41807445z"  horiz-adv-x="1024" />

    


  </font>
</defs>
</svg>
